<?xml version="1.0" encoding="UTF-8"?>
<svg xmlns="http://www.w3.org/2000/svg" width="110" height="24" viewBox="0 0 110 24" fill="none">
  <g clip-path="url(#clip0_1_5444)">
    <g clip-path="url(#clip1_1_5444)">
      <g clip-path="url(#clip2_1_5444)">
        <path d="M6.86001 23.7508C4.36988 23.8391 1.93263 23.0187 0.00280762 21.4425L1.98114 17.9475C3.62957 19.0684 5.08038 19.6618 6.46532 19.6618C6.85732 19.6926 7.24916 19.6003 7.58623 19.3978C7.69379 19.3364 7.78556 19.2507 7.85426 19.1476C7.92296 19.0445 7.9667 18.9268 7.982 18.8039C7.9923 18.6899 7.96942 18.5753 7.91613 18.474C7.86424 18.356 7.77003 18.2618 7.6521 18.2099C7.52035 18.1441 7.45448 18.0782 7.3222 18.0123C7.17345 17.9354 7.01891 17.8702 6.86001 17.8174C6.68025 17.7625 6.50407 17.6965 6.33249 17.6198C6.14178 17.5338 5.94276 17.4676 5.73856 17.4222C5.47453 17.3563 5.27691 17.2904 5.0793 17.2246C3.90527 16.8269 2.81152 16.2232 1.84939 15.4417C1.47803 15.0712 1.18688 14.6282 0.994046 14.1404C0.80121 13.6525 0.710815 13.1302 0.728483 12.6059C0.69887 11.8658 0.851824 11.1298 1.17386 10.4627C1.49589 9.79571 1.9771 9.21815 2.57507 8.78102C4.01027 7.80711 5.72112 7.32165 7.45394 7.39662C9.73464 7.34243 11.9739 8.01192 13.8506 9.30908L11.9381 12.6723C10.7078 11.8961 9.30169 11.4425 7.84971 11.3533C7.45771 11.3225 7.06587 11.4148 6.72881 11.6173C6.61083 11.6651 6.50998 11.7473 6.43939 11.8533C6.3688 11.9592 6.33174 12.0839 6.33303 12.2112C6.33303 12.4753 6.46478 12.6729 6.79468 12.8705C7.32164 13.1428 7.87368 13.3636 8.44311 13.5298C9.69348 13.9571 10.9066 14.4864 12.0704 15.1123C12.635 15.5004 13.0936 16.0234 13.4048 16.6337C13.716 17.2441 13.8698 17.9225 13.8522 18.6073C13.8806 19.3688 13.7063 20.1241 13.3472 20.7961C12.988 21.4682 12.4569 22.0328 11.808 22.4323C10.327 23.3552 8.6039 23.8144 6.86001 23.7508Z" fill="#0255C2"></path>
        <path d="M16.357 23.4209V0.999992H22.0263V23.4209H16.357Z" fill="#0255C2"></path>
        <path d="M32.513 23.8167C30.0072 23.8167 27.963 23.0915 26.5122 21.5743C25.0613 20.0571 24.3362 18.0798 24.3362 15.574C24.3362 13.0681 25.0613 11.0239 26.5786 9.57312C28.0288 8.05589 30.0056 7.33076 32.5794 7.33076C35.217 7.33076 37.1954 8.05589 38.6462 9.5067C40.097 10.9575 40.8221 13.0017 40.8221 15.5734C40.8221 18.0793 40.097 20.0576 38.6462 21.5743C36.9733 23.0944 34.7719 23.8993 32.513 23.8167ZM29.6778 15.574C29.6778 18.1457 30.6011 19.3989 32.5136 19.3989C34.426 19.3989 35.3509 18.1457 35.3509 15.574C35.3509 13.0023 34.4276 11.7491 32.5152 11.7491C30.667 11.7491 29.6778 13.0001 29.6778 15.574Z" fill="#0255C2"></path>
        <path d="M53.6153 18.0798L55.1979 21.9706C53.6102 23.1817 51.6547 23.8107 49.6587 23.7524C48.8847 23.7907 48.111 23.6698 47.3856 23.3973C46.6601 23.1249 45.9982 22.7066 45.4407 22.1682C44.3857 21.1132 43.8581 19.6624 43.8581 17.6841V11.3533H41.8771V7.66066H43.8554V2.84658H49.4605V7.72653H54.1423V11.4192H49.4605V17.0248C49.4605 18.278 50.1198 18.9373 51.373 18.9373C52.184 18.8586 52.9587 18.5624 53.6153 18.0798Z" fill="#0255C2"></path>
        <path d="M67.8594 18.0798L69.442 21.9706C67.8543 23.1817 65.8988 23.8107 63.9028 23.7524C63.1287 23.7907 62.3551 23.6698 61.6296 23.3973C60.9042 23.1249 60.2422 22.7066 59.6848 22.1682C58.6297 21.1132 58.1022 19.6624 58.1022 17.6841V11.3533H56.1212V7.66066H58.0995V2.84658H63.7046V7.72653H68.3864V11.4192H63.7046V17.0248C63.7046 18.278 64.3639 18.9373 65.6171 18.9373C66.4307 18.8699 67.2084 18.5725 67.8594 18.0798Z" fill="black"></path>
        <path d="M70.8928 23.4214V7.72652H76.4979V23.4214H70.8928Z" fill="black"></path>
        <path d="M86.6536 23.7508C84.6122 23.8117 82.6267 23.079 81.1144 21.7066C79.5977 20.3217 78.8061 18.3455 78.8061 15.7057C78.8061 13.134 79.5977 11.0898 81.1144 9.57312C82.6969 8.05644 84.6779 7.33077 87.1811 7.33077C88.5832 7.32152 89.9657 7.66146 91.2036 8.31993C92.4402 8.95174 93.4361 9.97079 94.0394 11.2216L89.8851 13.3975C89.6877 12.9725 89.3885 12.6027 89.014 12.321C88.6395 12.0393 88.2013 11.8544 87.7382 11.7827C87.275 11.7109 86.8014 11.7546 86.3592 11.9098C85.917 12.065 85.52 12.3269 85.2033 12.6724C84.6094 13.2663 84.3459 14.2549 84.3459 15.574C84.3459 16.827 84.6097 17.7503 85.1374 18.3439C85.3827 18.6249 85.6875 18.8477 86.0298 18.996C86.372 19.1443 86.743 19.2145 87.1158 19.2013C88.3036 19.2013 89.3576 18.4761 90.1491 17.0912L94.1717 19.2013C92.852 22.233 90.2803 23.7508 86.6536 23.7508Z" fill="black"></path>
        <path d="M102.81 7.33076C104.697 7.24765 106.55 7.85734 108.019 9.04506C109.338 10.166 109.997 11.8149 109.997 13.8591V23.4209H105.183V21.7725C104.594 22.4231 103.87 22.9373 103.061 23.279C102.252 23.6207 101.379 23.7817 100.501 23.7508C99.0835 23.8248 97.6911 23.3527 96.6105 22.4317C96.117 21.9845 95.7303 21.4321 95.4792 20.8152C95.228 20.1983 95.1189 19.5329 95.1597 18.8681C95.1362 17.7318 95.5357 16.6273 96.2806 15.7689C97.0641 14.9648 98.0403 14.3746 99.1164 14.0546C100.341 13.7228 101.607 13.5673 102.875 13.593C103.581 13.5977 104.285 13.6416 104.986 13.7247C105.009 13.4048 104.948 13.0844 104.809 12.7952C104.67 12.5061 104.458 12.2582 104.194 12.0763C103.635 11.6872 102.961 11.5011 102.282 11.5487C100.609 11.606 98.9959 12.1821 97.6656 13.1972L95.5555 9.83391C96.4927 9.00086 97.593 8.372 98.7865 7.98732C100.08 7.54003 101.441 7.31795 102.81 7.33076ZM102.084 19.6624C102.44 19.666 102.793 19.5978 103.121 19.4618C103.45 19.3258 103.748 19.1248 103.997 18.8708C104.561 18.3098 104.891 17.5557 104.92 16.7608H103.138C101.424 16.7608 100.567 17.2883 100.567 18.2774C100.562 18.4606 100.594 18.6429 100.662 18.813C100.73 18.9831 100.832 19.1375 100.962 19.2666C101.105 19.4159 101.281 19.5295 101.476 19.5982C101.671 19.667 101.879 19.689 102.084 19.6624Z" fill="black"></path>
      </g>
    </g>
  </g>
  <defs>
    <clipPath id="clip0_1_5444">
      <rect width="110" height="22.8167" fill="white" transform="translate(0 1)"></rect>
    </clipPath>
    <clipPath id="clip1_1_5444">
      <rect width="110" height="22.8167" fill="white" transform="translate(0 1)"></rect>
    </clipPath>
    <clipPath id="clip2_1_5444">
      <rect width="109.994" height="22.8167" fill="white" transform="translate(0.0027771 1)"></rect>
    </clipPath>
  </defs>
</svg>
