<?xml version="1.0" encoding="UTF-8"?>
<svg xmlns="http://www.w3.org/2000/svg" width="116" height="24" viewBox="0 0 116 24" fill="none">
  <g clip-path="url(#clip0_1_5740)">
    <g clip-path="url(#clip1_1_5740)">
      <g clip-path="url(#clip2_1_5740)">
        <mask id="mask0_1_5740" style="mask-type:luminance" maskUnits="userSpaceOnUse" x="0" y="0" width="116" height="24">
          <path d="M116 0H0V24H116V0Z" fill="white"></path>
        </mask>
        <g mask="url(#mask0_1_5740)">
          <path d="M7.2316 23.9309C4.6055 24.0239 2.0352 23.1609 0 21.503L2.0863 17.8267C3.8248 19.0057 5.3548 19.6299 6.8154 19.6299C7.2288 19.6623 7.642 19.5652 7.9975 19.3522C8.1109 19.2876 8.2077 19.1974 8.2801 19.089C8.3526 18.9806 8.3987 18.8568 8.4148 18.7275C8.4257 18.6075 8.4016 18.487 8.3454 18.3804C8.2907 18.2564 8.1913 18.1573 8.0669 18.1027C7.928 18.0334 7.8585 17.9641 7.719 17.8949C7.5621 17.814 7.3992 17.7454 7.2316 17.6898C7.042 17.6321 6.8562 17.5627 6.6753 17.482C6.4742 17.3915 6.2643 17.3219 6.0489 17.2741C5.7705 17.2048 5.5621 17.1355 5.3537 17.0662C4.1155 16.648 2.9621 16.0129 1.94741 15.1909C1.55577 14.8012 1.24872 14.3352 1.04536 13.8221C0.84199 13.3089 0.74666 12.7595 0.7653 12.2081C0.73407 11.4296 0.89537 10.6554 1.23499 9.95375C1.5746 9.25215 2.0821 8.64465 2.7127 8.18485C4.2263 7.16045 6.0305 6.64974 7.858 6.72864C10.2632 6.67164 12.6247 7.37584 14.6038 8.74024L12.587 12.2779C11.2895 11.4615 9.8066 10.9843 8.2753 10.8905C7.8619 10.8581 7.4487 10.9552 7.0932 11.1682C6.9688 11.2185 6.8625 11.305 6.788 11.4164C6.7136 11.5278 6.6745 11.659 6.6758 11.7929C6.6758 12.0706 6.8148 12.2785 7.1627 12.4864C7.7184 12.7728 8.3006 13.0051 8.9011 13.1798C10.2198 13.6294 11.4992 14.1861 12.7265 14.8445C13.3219 15.2527 13.8056 15.8028 14.1337 16.4448C14.4619 17.0868 14.6241 17.8003 14.6056 18.5207C14.6355 19.3217 14.4517 20.1162 14.073 20.8231C13.6942 21.5299 13.134 22.1238 12.4497 22.544C10.8879 23.5148 9.0707 23.9978 7.2316 23.9309Z" fill="#1245FF"></path>
          <path d="M17.2471 23.5837V0H23.226V23.5837H17.2471Z" fill="#1245FF"></path>
          <path d="M34.2851 24.0001C31.6425 24.0001 29.4866 23.2373 27.9566 21.6414C26.4266 20.0455 25.6619 17.9657 25.6619 15.3299C25.6619 12.6941 26.4266 10.5439 28.0267 9.01778C29.5561 7.42188 31.6407 6.65918 34.3552 6.65918C37.1368 6.65918 39.2231 7.42188 40.7531 8.94798C42.2832 10.474 43.0479 12.6243 43.0479 15.3293C43.0479 17.9652 42.2832 20.0461 40.7531 21.6414C38.9889 23.2404 36.6673 24.087 34.2851 24.0001ZM31.2951 15.3299C31.2951 18.035 32.2688 19.3532 34.2857 19.3532C36.3026 19.3532 37.278 18.035 37.278 15.3299C37.278 12.6248 36.3043 11.3066 34.2874 11.3066C32.3383 11.3066 31.2951 12.6225 31.2951 15.3299Z" fill="#1245FF"></path>
          <path d="M56.5398 17.9657L58.2087 22.0582C56.5344 23.3321 54.4721 23.9938 52.3671 23.9324C51.5508 23.9727 50.7349 23.8456 49.9698 23.559C49.2048 23.2724 48.5067 22.8323 47.9188 22.2661C46.8062 21.1564 46.2498 19.6303 46.2498 17.5494V10.8903H44.1606V7.0061H46.247V1.94238H52.1581V7.0754H57.0955V10.9596H52.1581V16.8559C52.1581 18.1741 52.8534 18.8676 54.175 18.8676C55.0303 18.7848 55.8473 18.4732 56.5398 17.9657Z" fill="#1245FF"></path>
          <path d="M71.5615 17.9657L73.2305 22.0582C71.5561 23.3321 69.4938 23.9938 67.3888 23.9324C66.5725 23.9727 65.7567 23.8456 64.9916 23.559C64.2265 23.2724 63.5284 22.8323 62.9405 22.2661C61.8279 21.1564 61.2716 19.6303 61.2716 17.5494V10.8903H59.1824V7.0061H61.2687V1.94238H67.1798V7.0754H72.1172V10.9596H67.1798V16.8559C67.1798 18.1741 67.8751 18.8676 69.1967 18.8676C70.0548 18.7967 70.8749 18.4839 71.5615 17.9657Z" fill="white"></path>
          <path d="M74.7605 23.5841V7.0752H80.6716V23.5841H74.7605Z" fill="white"></path>
          <path d="M91.3819 23.9305C89.2291 23.9947 87.1352 23.2239 85.5402 21.7803C83.9407 20.3236 83.106 18.2449 83.106 15.4682C83.106 12.7631 83.9407 10.6129 85.5402 9.01758C87.2092 7.42218 89.2984 6.65888 91.9382 6.65888C93.417 6.64918 94.875 7.00678 96.18 7.69938C97.484 8.36398 98.535 9.43588 99.171 10.7515L94.79 13.0403C94.582 12.5932 94.266 12.2043 93.871 11.908C93.476 11.6117 93.014 11.4172 92.526 11.3417C92.037 11.2663 91.5378 11.3122 91.0714 11.4754C90.6051 11.6387 90.1864 11.9142 89.8524 12.2776C89.2261 12.9023 88.9482 13.9422 88.9482 15.3297C88.9482 16.6477 89.2264 17.6188 89.7829 18.2432C90.0416 18.5388 90.3631 18.7732 90.724 18.9292C91.0849 19.0852 91.4762 19.159 91.8693 19.1451C93.122 19.1451 94.234 18.3823 95.068 16.9256L99.31 19.1451C97.919 22.3341 95.207 23.9305 91.3819 23.9305Z" fill="white"></path>
          <path d="M108.42 6.65877C110.41 6.57137 112.364 7.21267 113.914 8.46197C115.305 9.64107 116 11.3756 116 13.5258V23.5834H110.923V21.8495C110.302 22.5339 109.538 23.0747 108.685 23.4342C107.832 23.7936 106.911 23.963 105.986 23.9304C104.49 24.0082 103.022 23.5117 101.882 22.543C101.362 22.0726 100.954 21.4914 100.689 20.8426C100.424 20.1937 100.309 19.4938 100.352 18.7946C100.328 17.5993 100.749 16.4375 101.534 15.5346C102.361 14.6888 103.39 14.068 104.525 13.7314C105.817 13.3823 107.151 13.2188 108.489 13.2458C109.233 13.2507 109.976 13.297 110.715 13.3844C110.739 13.0478 110.675 12.7108 110.528 12.4067C110.382 12.1025 110.158 11.8419 109.88 11.6504C109.291 11.2412 108.579 11.0454 107.863 11.0956C106.099 11.1558 104.398 11.7617 102.995 12.8295L100.77 9.29177C101.758 8.41547 102.918 7.75407 104.177 7.34937C105.541 6.87887 106.976 6.64527 108.42 6.65877ZM107.655 19.63C108.03 19.6338 108.402 19.5621 108.749 19.419C109.095 19.2759 109.409 19.0645 109.672 18.7974C110.267 18.2072 110.615 17.414 110.646 16.5779H108.767C106.959 16.5779 106.054 17.1328 106.054 18.1732C106.049 18.3659 106.083 18.5576 106.155 18.7365C106.227 18.9155 106.335 19.0779 106.472 19.2137C106.623 19.3707 106.808 19.4902 107.014 19.5625C107.219 19.6348 107.439 19.6579 107.655 19.63Z" fill="white"></path>
        </g>
      </g>
    </g>
  </g>
  <defs>
    <clipPath id="clip0_1_5740">
      <rect width="116" height="24" fill="white"></rect>
    </clipPath>
    <clipPath id="clip1_1_5740">
      <rect width="116" height="24" fill="white"></rect>
    </clipPath>
    <clipPath id="clip2_1_5740">
      <rect width="116" height="24" fill="white"></rect>
    </clipPath>
  </defs>
</svg>
